<?xml version="1.0" encoding="UTF-8" standalone="no"?>
<!DOCTYPE svg PUBLIC "-//W3C//DTD SVG 1.1//EN"
 "http://www.w3.org/Graphics/SVG/1.1/DTD/svg11.dtd">
<!-- Generated by graphviz version 10.0.1 (20240210.2158)
 -->
<!-- Pages: 1 -->
<svg width="1269pt" height="1234pt"
 viewBox="0.00 0.00 1269.00 1233.90" xmlns="http://www.w3.org/2000/svg" xmlns:xlink="http://www.w3.org/1999/xlink">
<g id="graph0" class="graph" transform="scale(1 1) rotate(0) translate(4 1229.9)">
<polygon fill="white" stroke="none" points="-4,4 -4,-1229.9 1265,-1229.9 1265,4 -4,4"/>
<!-- q2 -->
<g id="node1" class="node">
<title>q2</title>
<ellipse fill="none" stroke="black" cx="252" cy="-930.94" rx="20.13" ry="20.13"/>
<text text-anchor="middle" x="252" y="-925.51" font-family="Times New Roman,serif" font-size="14.00">q2</text>
</g>
<!-- q2&#45;&gt;q2 -->
<g id="edge8" class="edge">
<title>q2&#45;&gt;q2</title>
<path fill="none" stroke="black" d="M270.83,-939.21C280.93,-940.61 290.13,-937.85 290.13,-930.94 290.13,-926.83 286.88,-924.19 282.14,-923.01"/>
<polygon fill="black" stroke="black" points="282.45,-919.52 272.34,-922.71 282.23,-926.52 282.45,-919.52"/>
<text text-anchor="middle" x="337.38" y="-925.51" font-family="Times New Roman,serif" font-size="14.00">0BB / 0BB, RSS</text>
</g>
<!-- q3 -->
<g id="node17" class="node">
<title>q3</title>
<ellipse fill="none" stroke="black" cx="337" cy="-838.93" rx="20.13" ry="20.13"/>
<text text-anchor="middle" x="337" y="-833.51" font-family="Times New Roman,serif" font-size="14.00">q3</text>
</g>
<!-- q2&#45;&gt;q3 -->
<g id="edge9" class="edge">
<title>q2&#45;&gt;q3</title>
<path fill="none" stroke="black" d="M265.28,-915.87C278.8,-901.56 299.96,-879.15 315.8,-862.38"/>
<polygon fill="black" stroke="black" points="318.17,-864.97 322.49,-855.29 313.08,-860.16 318.17,-864.97"/>
<text text-anchor="middle" x="347.25" y="-879.51" font-family="Times New Roman,serif" font-size="14.00">1BB / 1BB, RSS</text>
</g>
<!-- q13 -->
<g id="node2" class="node">
<title>q13</title>
<ellipse fill="none" stroke="black" cx="878" cy="-275.5" rx="24.62" ry="24.62"/>
<text text-anchor="middle" x="878" y="-270.08" font-family="Times New Roman,serif" font-size="14.00">q13</text>
</g>
<!-- q14 -->
<g id="node12" class="node">
<title>q14</title>
<ellipse fill="none" stroke="black" cx="823" cy="-150.06" rx="24.62" ry="24.62"/>
<text text-anchor="middle" x="823" y="-144.64" font-family="Times New Roman,serif" font-size="14.00">q14</text>
</g>
<!-- q13&#45;&gt;q14 -->
<g id="edge36" class="edge">
<title>q13&#45;&gt;q14</title>
<path fill="none" stroke="black" d="M868.17,-252.43C859.6,-233.21 847.07,-205.09 837.38,-183.34"/>
<polygon fill="black" stroke="black" points="840.63,-182.03 833.36,-174.32 834.24,-184.88 840.63,-182.03"/>
<text text-anchor="middle" x="903.38" y="-219.59" font-family="Times New Roman,serif" font-size="14.00">10B / 1BB, SLS</text>
</g>
<!-- q18 -->
<g id="node3" class="node">
<title>q18</title>
<ellipse fill="none" stroke="black" cx="1000" cy="-150.06" rx="24.62" ry="24.62"/>
<text text-anchor="middle" x="1000" y="-144.64" font-family="Times New Roman,serif" font-size="14.00">q18</text>
</g>
<!-- q18&#45;&gt;q18 -->
<g id="edge44" class="edge">
<title>q18&#45;&gt;q18</title>
<path fill="none" stroke="black" d="M1021.05,-163.53C1032.34,-165.82 1042.62,-161.33 1042.62,-150.06 1042.62,-142.84 1038.4,-138.4 1032.4,-136.75"/>
<polygon fill="black" stroke="black" points="1032.61,-133.25 1022.56,-136.61 1032.51,-140.25 1032.61,-133.25"/>
<text text-anchor="middle" x="1089.87" y="-144.64" font-family="Times New Roman,serif" font-size="14.00">1XB / 1XB, SLS</text>
</g>
<!-- q19 -->
<g id="node25" class="node">
<title>q19</title>
<ellipse fill="none" stroke="black" cx="1016" cy="-24.62" rx="24.62" ry="24.62"/>
<text text-anchor="middle" x="1016" y="-19.19" font-family="Times New Roman,serif" font-size="14.00">q19</text>
</g>
<!-- q18&#45;&gt;q19 -->
<g id="edge45" class="edge">
<title>q18&#45;&gt;q19</title>
<path fill="none" stroke="black" d="M1003.08,-125.26C1005.46,-106.9 1008.79,-81.24 1011.47,-60.55"/>
<polygon fill="black" stroke="black" points="1014.92,-61.21 1012.73,-50.85 1007.97,-60.31 1014.92,-61.21"/>
<text text-anchor="middle" x="1055.75" y="-69.68" font-family="Times New Roman,serif" font-size="14.00">11B / 1XB, SLS</text>
</g>
<!-- q24 -->
<g id="node4" class="node">
<title>q24</title>
<ellipse fill="none" stroke="black" cx="156" cy="-493.22" rx="24.62" ry="24.62"/>
<text text-anchor="middle" x="156" y="-487.8" font-family="Times New Roman,serif" font-size="14.00">q24</text>
</g>
<!-- q24&#45;&gt;q24 -->
<g id="edge56" class="edge">
<title>q24&#45;&gt;q24</title>
<path fill="none" stroke="black" d="M179.23,-502.54C189.63,-503.43 198.62,-500.32 198.62,-493.22 198.62,-489.01 195.45,-486.2 190.7,-484.8"/>
<polygon fill="black" stroke="black" points="190.98,-481.31 180.74,-484.02 190.44,-488.29 190.98,-481.31"/>
<text text-anchor="middle" x="248.87" y="-487.8" font-family="Times New Roman,serif" font-size="14.00">0XB / XXB, RRS</text>
</g>
<!-- q_accept -->
<g id="node9" class="node">
<title>q_accept</title>
<ellipse fill="none" stroke="black" cx="192" cy="-150.06" rx="45.08" ry="45.08"/>
<ellipse fill="none" stroke="black" cx="192" cy="-150.06" rx="49.08" ry="49.08"/>
<text text-anchor="middle" x="192" y="-144.64" font-family="Times New Roman,serif" font-size="14.00">q_accept</text>
</g>
<!-- q24&#45;&gt;q_accept -->
<g id="edge57" class="edge">
<title>q24&#45;&gt;q_accept</title>
<path fill="none" stroke="black" d="M180.97,-490.69C222.55,-486.61 304.71,-471.66 338,-416.85 386.46,-337.09 297.79,-240.33 238.67,-188.37"/>
<polygon fill="black" stroke="black" points="241.18,-185.92 231.33,-182.03 236.61,-191.21 241.18,-185.92"/>
<text text-anchor="middle" x="396.75" y="-336.32" font-family="Times New Roman,serif" font-size="14.00">01B / 01B, RRS</text>
<text text-anchor="middle" x="396.75" y="-320.57" font-family="Times New Roman,serif" font-size="14.00">11B / 110, RRS</text>
</g>
<!-- q21 -->
<g id="node16" class="node">
<title>q21</title>
<ellipse fill="none" stroke="black" cx="189" cy="-392.24" rx="24.62" ry="24.62"/>
<text text-anchor="middle" x="189" y="-386.81" font-family="Times New Roman,serif" font-size="14.00">q21</text>
</g>
<!-- q24&#45;&gt;q21 -->
<g id="edge58" class="edge">
<title>q24&#45;&gt;q21</title>
<path fill="none" stroke="black" d="M163.49,-469.76C167.72,-457.07 173.09,-440.95 177.81,-426.79"/>
<polygon fill="black" stroke="black" points="181.11,-427.98 180.95,-417.39 174.47,-425.77 181.11,-427.98"/>
<text text-anchor="middle" x="221.88" y="-437.3" font-family="Times New Roman,serif" font-size="14.00">1XB / 1X0, LLR</text>
</g>
<!-- q0 -->
<g id="node5" class="node">
<title>q0</title>
<ellipse fill="none" stroke="black" cx="339" cy="-1150.42" rx="20.13" ry="20.13"/>
<text text-anchor="middle" x="339" y="-1145" font-family="Times New Roman,serif" font-size="14.00">q0</text>
</g>
<!-- q1 -->
<g id="node19" class="node">
<title>q1</title>
<ellipse fill="none" stroke="black" cx="258" cy="-1058.42" rx="20.13" ry="20.13"/>
<text text-anchor="middle" x="258" y="-1052.99" font-family="Times New Roman,serif" font-size="14.00">q1</text>
</g>
<!-- q0&#45;&gt;q1 -->
<g id="edge2" class="edge">
<title>q0&#45;&gt;q1</title>
<path fill="none" stroke="black" d="M325.34,-1135.48C318.67,-1128.59 310.57,-1120.09 303.5,-1112.29 294.96,-1102.88 285.77,-1092.29 277.9,-1083.08"/>
<polygon fill="black" stroke="black" points="280.66,-1080.93 271.52,-1075.57 275.33,-1085.46 280.66,-1080.93"/>
<text text-anchor="middle" x="351.25" y="-1098.99" font-family="Times New Roman,serif" font-size="14.00">0BB / 1BB, RSS</text>
</g>
<!-- q0+ -->
<g id="node20" class="node">
<title>q0+</title>
<ellipse fill="none" stroke="black" cx="420" cy="-994.68" rx="25.62" ry="25.62"/>
<text text-anchor="middle" x="420" y="-989.25" font-family="Times New Roman,serif" font-size="14.00">q0+</text>
</g>
<!-- q0&#45;&gt;q0+ -->
<g id="edge3" class="edge">
<title>q0&#45;&gt;q0+</title>
<path fill="none" stroke="black" d="M357.93,-1142.34C371.23,-1136.37 388.33,-1126.5 398,-1112.29 414.04,-1088.73 419.17,-1056.57 420.5,-1032"/>
<polygon fill="black" stroke="black" points="423.99,-1032.23 420.82,-1022.12 416.99,-1032 423.99,-1032.23"/>
<text text-anchor="middle" x="453.25" y="-1098.99" font-family="Times New Roman,serif" font-size="14.00">1BB / 1BB, RSS</text>
</g>
<!-- q16 -->
<g id="node6" class="node">
<title>q16</title>
<ellipse fill="none" stroke="black" cx="1001" cy="-392.24" rx="24.62" ry="24.62"/>
<text text-anchor="middle" x="1001" y="-386.81" font-family="Times New Roman,serif" font-size="14.00">q16</text>
</g>
<!-- q16&#45;&gt;q16 -->
<g id="edge41" class="edge">
<title>q16&#45;&gt;q16</title>
<path fill="none" stroke="black" d="M1024.23,-401.56C1034.63,-402.44 1043.62,-399.34 1043.62,-392.24 1043.62,-388.02 1040.45,-385.21 1035.7,-383.81"/>
<polygon fill="black" stroke="black" points="1035.98,-380.33 1025.74,-383.04 1035.44,-387.3 1035.98,-380.33"/>
<text text-anchor="middle" x="1090.12" y="-386.81" font-family="Times New Roman,serif" font-size="14.00">10B / 1XB, SRS</text>
</g>
<!-- q17 -->
<g id="node24" class="node">
<title>q17</title>
<ellipse fill="none" stroke="black" cx="1001" cy="-275.5" rx="24.62" ry="24.62"/>
<text text-anchor="middle" x="1001" y="-270.08" font-family="Times New Roman,serif" font-size="14.00">q17</text>
</g>
<!-- q16&#45;&gt;q17 -->
<g id="edge42" class="edge">
<title>q16&#45;&gt;q17</title>
<path fill="none" stroke="black" d="M1001,-367.19C1001,-351.2 1001,-329.93 1001,-312.01"/>
<polygon fill="black" stroke="black" points="1004.5,-312.04 1001,-302.04 997.5,-312.04 1004.5,-312.04"/>
<text text-anchor="middle" x="1047.5" y="-328.45" font-family="Times New Roman,serif" font-size="14.00">1BB / 1BB, SLS</text>
</g>
<!-- q22 -->
<g id="node7" class="node">
<title>q22</title>
<ellipse fill="none" stroke="black" cx="167" cy="-710.94" rx="24.62" ry="24.62"/>
<text text-anchor="middle" x="167" y="-705.52" font-family="Times New Roman,serif" font-size="14.00">q22</text>
</g>
<!-- q22&#45;&gt;q22 -->
<g id="edge53" class="edge">
<title>q22&#45;&gt;q22</title>
<path fill="none" stroke="black" d="M189.36,-721.62C200.12,-722.93 209.62,-719.38 209.62,-710.94 209.62,-705.67 205.91,-702.3 200.5,-700.84"/>
<polygon fill="black" stroke="black" points="201.04,-697.36 190.88,-700.34 200.68,-704.35 201.04,-697.36"/>
<text text-anchor="middle" x="257.24" y="-713.39" font-family="Times New Roman,serif" font-size="14.00">1BB / 0BB, LSS</text>
<text text-anchor="middle" x="257.24" y="-697.64" font-family="Times New Roman,serif" font-size="14.00">0BB / BBB, LSS</text>
</g>
<!-- q23 -->
<g id="node22" class="node">
<title>q23</title>
<ellipse fill="none" stroke="black" cx="164" cy="-594.21" rx="24.62" ry="24.62"/>
<text text-anchor="middle" x="164" y="-588.78" font-family="Times New Roman,serif" font-size="14.00">q23</text>
</g>
<!-- q22&#45;&gt;q23 -->
<g id="edge54" class="edge">
<title>q22&#45;&gt;q23</title>
<path fill="none" stroke="black" d="M166.37,-685.89C165.95,-669.9 165.4,-648.63 164.93,-630.71"/>
<polygon fill="black" stroke="black" points="168.43,-630.64 164.67,-620.74 161.43,-630.83 168.43,-630.64"/>
<text text-anchor="middle" x="215.5" y="-647.15" font-family="Times New Roman,serif" font-size="14.00">BBB / BBB, RSS</text>
</g>
<!-- q6 -->
<g id="node8" class="node">
<title>q6</title>
<ellipse fill="none" stroke="black" cx="337" cy="-493.22" rx="20.13" ry="20.13"/>
<text text-anchor="middle" x="337" y="-487.8" font-family="Times New Roman,serif" font-size="14.00">q6</text>
</g>
<!-- q6&#45;&gt;q6 -->
<g id="edge21" class="edge">
<title>q6&#45;&gt;q6</title>
<path fill="none" stroke="black" d="M355.44,-502.24C365.69,-503.92 375.13,-500.91 375.13,-493.22 375.13,-488.53 371.62,-485.59 366.56,-484.38"/>
<polygon fill="black" stroke="black" points="367,-480.89 356.95,-484.23 366.9,-487.89 367,-480.89"/>
<text text-anchor="middle" x="421.63" y="-495.67" font-family="Times New Roman,serif" font-size="14.00">00B / 0XB, RLS</text>
<text text-anchor="middle" x="421.63" y="-479.92" font-family="Times New Roman,serif" font-size="14.00">10B / 1XB, SLS</text>
</g>
<!-- q6&#45;&gt;q3 -->
<g id="edge22" class="edge">
<title>q6&#45;&gt;q3</title>
<path fill="none" stroke="black" d="M337,-513.47C337,-570.27 337,-737.49 337,-807.04"/>
<polygon fill="black" stroke="black" points="333.5,-806.96 337,-816.96 340.5,-806.96 333.5,-806.96"/>
<text text-anchor="middle" x="385" y="-647.15" font-family="Times New Roman,serif" font-size="14.00">1BB / 1BB, RRS</text>
</g>
<!-- q9 -->
<g id="node10" class="node">
<title>q9</title>
<ellipse fill="none" stroke="black" cx="716" cy="-493.22" rx="20.13" ry="20.13"/>
<text text-anchor="middle" x="716" y="-487.8" font-family="Times New Roman,serif" font-size="14.00">q9</text>
</g>
<!-- q9&#45;&gt;q9 -->
<g id="edge27" class="edge">
<title>q9&#45;&gt;q9</title>
<path fill="none" stroke="black" d="M734.44,-502.24C744.69,-503.92 754.13,-500.91 754.13,-493.22 754.13,-488.53 750.62,-485.59 745.56,-484.38"/>
<polygon fill="black" stroke="black" points="746,-480.89 735.95,-484.23 745.9,-487.89 746,-480.89"/>
<text text-anchor="middle" x="799.88" y="-487.8" font-family="Times New Roman,serif" font-size="14.00">00B / 0XB, SLS</text>
</g>
<!-- q5 -->
<g id="node11" class="node">
<title>q5</title>
<ellipse fill="none" stroke="black" cx="529" cy="-594.21" rx="20.13" ry="20.13"/>
<text text-anchor="middle" x="529" y="-588.78" font-family="Times New Roman,serif" font-size="14.00">q5</text>
</g>
<!-- q9&#45;&gt;q5 -->
<g id="edge28" class="edge">
<title>q9&#45;&gt;q5</title>
<path fill="none" stroke="black" d="M728.37,-509.57C736.84,-522.04 744.9,-539.49 735,-551.59 713.35,-578.05 613.01,-588.07 560.78,-591.54"/>
<polygon fill="black" stroke="black" points="560.79,-588.04 551.03,-592.15 561.22,-595.02 560.79,-588.04"/>
<text text-anchor="middle" x="786.25" y="-538.29" font-family="Times New Roman,serif" font-size="14.00">0BB / 0BB, LRS</text>
</g>
<!-- q5&#45;&gt;q6 -->
<g id="edge19" class="edge">
<title>q5&#45;&gt;q6</title>
<path fill="none" stroke="black" d="M508.7,-590.6C480.28,-586.22 427.83,-575.4 389.75,-551.59 376.4,-543.24 364.28,-530.62 355.04,-519.34"/>
<polygon fill="black" stroke="black" points="357.83,-517.23 348.92,-511.5 352.31,-521.54 357.83,-517.23"/>
<text text-anchor="middle" x="436.12" y="-538.29" font-family="Times New Roman,serif" font-size="14.00">1BB / 11B, RLS</text>
</g>
<!-- q5&#45;&gt;q9 -->
<g id="edge18" class="edge">
<title>q5&#45;&gt;q9</title>
<path fill="none" stroke="black" d="M547.83,-586C567.14,-578.34 597.83,-565.46 623,-551.59 634.01,-545.52 635.49,-541.91 646.5,-535.84 663.75,-526.32 670.22,-528.15 687,-517.84 688.83,-516.72 690.66,-515.49 692.48,-514.21"/>
<polygon fill="black" stroke="black" points="694.2,-517.3 700.01,-508.44 689.94,-511.74 694.2,-517.3"/>
<text text-anchor="middle" x="690.25" y="-538.29" font-family="Times New Roman,serif" font-size="14.00">01B / 01B, SLS</text>
</g>
<!-- q5&#45;&gt;q5 -->
<g id="edge16" class="edge">
<title>q5&#45;&gt;q5</title>
<path fill="none" stroke="black" d="M547.44,-603.22C557.69,-604.9 567.13,-601.9 567.13,-594.21 567.13,-589.52 563.62,-586.57 558.56,-585.37"/>
<polygon fill="black" stroke="black" points="559,-581.87 548.95,-585.22 558.9,-588.87 559,-581.87"/>
<text text-anchor="middle" x="613.25" y="-588.78" font-family="Times New Roman,serif" font-size="14.00">0BB / 00B, LRS</text>
</g>
<!-- q11 -->
<g id="node23" class="node">
<title>q11</title>
<ellipse fill="none" stroke="black" cx="888" cy="-493.22" rx="24.62" ry="24.62"/>
<text text-anchor="middle" x="888" y="-487.8" font-family="Times New Roman,serif" font-size="14.00">q11</text>
</g>
<!-- q5&#45;&gt;q11 -->
<g id="edge20" class="edge">
<title>q5&#45;&gt;q11</title>
<path fill="none" stroke="black" d="M549.2,-592.33C609.57,-589.43 787.6,-578.73 838,-551.59 850.15,-545.05 860.7,-534.3 868.94,-523.86"/>
<polygon fill="black" stroke="black" points="871.55,-526.23 874.67,-516.11 865.92,-522.07 871.55,-526.23"/>
<text text-anchor="middle" x="905" y="-538.29" font-family="Times New Roman,serif" font-size="14.00">1XB / 1XB, RSS</text>
</g>
<!-- q7 -->
<g id="node27" class="node">
<title>q7</title>
<ellipse fill="none" stroke="black" cx="544" cy="-493.22" rx="20.13" ry="20.13"/>
<text text-anchor="middle" x="544" y="-487.8" font-family="Times New Roman,serif" font-size="14.00">q7</text>
</g>
<!-- q5&#45;&gt;q7 -->
<g id="edge17" class="edge">
<title>q5&#45;&gt;q7</title>
<path fill="none" stroke="black" d="M527.87,-573.68C527.58,-562.52 527.85,-548.3 530,-535.84 530.73,-531.61 531.82,-527.23 533.07,-522.96"/>
<polygon fill="black" stroke="black" points="536.35,-524.17 536.16,-513.58 529.7,-521.98 536.35,-524.17"/>
<text text-anchor="middle" x="576.5" y="-538.29" font-family="Times New Roman,serif" font-size="14.00">0XB / 00B, SRS</text>
</g>
<!-- q14&#45;&gt;q14 -->
<g id="edge37" class="edge">
<title>q14&#45;&gt;q14</title>
<path fill="none" stroke="black" d="M844.05,-163.53C855.34,-165.82 865.62,-161.33 865.62,-150.06 865.62,-142.84 861.4,-138.4 855.4,-136.75"/>
<polygon fill="black" stroke="black" points="855.61,-133.25 845.56,-136.61 855.51,-140.25 855.61,-133.25"/>
<text text-anchor="middle" x="909.87" y="-144.64" font-family="Times New Roman,serif" font-size="14.00">10B / 10B, SLS</text>
</g>
<!-- q15 -->
<g id="node14" class="node">
<title>q15</title>
<ellipse fill="none" stroke="black" cx="808" cy="-24.62" rx="24.62" ry="24.62"/>
<text text-anchor="middle" x="808" y="-19.19" font-family="Times New Roman,serif" font-size="14.00">q15</text>
</g>
<!-- q14&#45;&gt;q15 -->
<g id="edge38" class="edge">
<title>q14&#45;&gt;q15</title>
<path fill="none" stroke="black" d="M820.11,-125.26C817.88,-106.9 814.76,-81.24 812.24,-60.55"/>
<polygon fill="black" stroke="black" points="815.75,-60.35 811.07,-50.85 808.8,-61.2 815.75,-60.35"/>
<text text-anchor="middle" x="858.25" y="-69.68" font-family="Times New Roman,serif" font-size="14.00">11B / 11B, SLS</text>
</g>
<!-- q12 -->
<g id="node13" class="node">
<title>q12</title>
<ellipse fill="none" stroke="black" cx="820" cy="-392.24" rx="24.62" ry="24.62"/>
<text text-anchor="middle" x="820" y="-386.81" font-family="Times New Roman,serif" font-size="14.00">q12</text>
</g>
<!-- q12&#45;&gt;q13 -->
<g id="edge35" class="edge">
<title>q12&#45;&gt;q13</title>
<path fill="none" stroke="black" d="M830.91,-369.66C839.66,-352.35 852.07,-327.81 861.95,-308.26"/>
<polygon fill="black" stroke="black" points="865.07,-309.84 866.46,-299.34 858.82,-306.68 865.07,-309.84"/>
<text text-anchor="middle" x="901.5" y="-328.45" font-family="Times New Roman,serif" font-size="14.00">1BB / 1BB, SLS</text>
</g>
<!-- q12&#45;&gt;q12 -->
<g id="edge34" class="edge">
<title>q12&#45;&gt;q12</title>
<path fill="none" stroke="black" d="M843.23,-401.56C853.63,-402.44 862.62,-399.34 862.62,-392.24 862.62,-388.02 859.45,-385.21 854.7,-383.81"/>
<polygon fill="black" stroke="black" points="854.98,-380.33 844.74,-383.04 854.44,-387.3 854.98,-380.33"/>
<text text-anchor="middle" x="910.62" y="-402.56" font-family="Times New Roman,serif" font-size="14.00">1XB / 1XB, SRS</text>
<text text-anchor="middle" x="910.62" y="-386.81" font-family="Times New Roman,serif" font-size="14.00">11B / 11B, SRS</text>
<text text-anchor="middle" x="910.62" y="-371.06" font-family="Times New Roman,serif" font-size="14.00">10B / 10B, SRS</text>
</g>
<!-- q15&#45;&gt;q15 -->
<g id="edge39" class="edge">
<title>q15&#45;&gt;q15</title>
<path fill="none" stroke="black" d="M831.23,-33.94C841.63,-34.82 850.62,-31.72 850.62,-24.62 850.62,-20.4 847.45,-17.59 842.7,-16.19"/>
<polygon fill="black" stroke="black" points="842.98,-12.71 832.74,-15.42 842.44,-19.68 842.98,-12.71"/>
<text text-anchor="middle" x="897.87" y="-19.19" font-family="Times New Roman,serif" font-size="14.00">1XB / 1XB, SLS</text>
</g>
<!-- q15&#45;&gt;q11 -->
<g id="edge40" class="edge">
<title>q15&#45;&gt;q11</title>
<path fill="none" stroke="black" d="M792.1,-43.4C773.44,-66.18 745,-107.68 745,-149.06 745,-393.24 745,-393.24 745,-393.24 745,-452.5 806.46,-434.61 855,-468.6 856.33,-469.54 857.7,-470.5 859.07,-471.47"/>
<polygon fill="black" stroke="black" points="856.74,-474.1 866.92,-477.04 860.79,-468.4 856.74,-474.1"/>
<text text-anchor="middle" x="790" y="-270.08" font-family="Times New Roman,serif" font-size="14.00">10B / 10B, SRS</text>
</g>
<!-- q8 -->
<g id="node15" class="node">
<title>q8</title>
<ellipse fill="none" stroke="black" cx="579" cy="-392.24" rx="20.13" ry="20.13"/>
<text text-anchor="middle" x="579" y="-386.81" font-family="Times New Roman,serif" font-size="14.00">q8</text>
</g>
<!-- q8&#45;&gt;q8 -->
<g id="edge26" class="edge">
<title>q8&#45;&gt;q8</title>
<path fill="none" stroke="black" d="M597.44,-401.25C607.69,-402.93 617.13,-399.93 617.13,-392.24 617.13,-387.55 613.62,-384.6 608.56,-383.4"/>
<polygon fill="black" stroke="black" points="609,-379.9 598.95,-383.25 608.9,-386.9 609,-379.9"/>
<text text-anchor="middle" x="664.38" y="-394.69" font-family="Times New Roman,serif" font-size="14.00">00B / 00B, SLS</text>
<text text-anchor="middle" x="664.38" y="-378.94" font-family="Times New Roman,serif" font-size="14.00">0XB / 0XB, SLS</text>
</g>
<!-- q10 -->
<g id="node26" class="node">
<title>q10</title>
<ellipse fill="none" stroke="black" cx="518" cy="-275.5" rx="24.62" ry="24.62"/>
<text text-anchor="middle" x="518" y="-270.08" font-family="Times New Roman,serif" font-size="14.00">q10</text>
</g>
<!-- q8&#45;&gt;q10 -->
<g id="edge25" class="edge">
<title>q8&#45;&gt;q10</title>
<path fill="none" stroke="black" d="M569.74,-373.81C560.4,-356.25 545.79,-328.77 534.47,-307.49"/>
<polygon fill="black" stroke="black" points="537.72,-306.13 529.93,-298.94 531.54,-309.42 537.72,-306.13"/>
<text text-anchor="middle" x="599.25" y="-328.45" font-family="Times New Roman,serif" font-size="14.00">01B / 01B, SLS</text>
</g>
<!-- q21&#45;&gt;q_accept -->
<g id="edge52" class="edge">
<title>q21&#45;&gt;q_accept</title>
<path fill="none" stroke="black" d="M189.3,-367.33C189.75,-331.11 190.62,-261.22 191.26,-210.67"/>
<polygon fill="black" stroke="black" points="194.75,-210.79 191.38,-200.75 187.75,-210.7 194.75,-210.79"/>
<text text-anchor="middle" x="235.62" y="-270.08" font-family="Times New Roman,serif" font-size="14.00">11B / 110, RRS</text>
</g>
<!-- q21&#45;&gt;q21 -->
<g id="edge50" class="edge">
<title>q21&#45;&gt;q21</title>
<path fill="none" stroke="black" d="M212.23,-401.56C222.63,-402.44 231.62,-399.34 231.62,-392.24 231.62,-388.02 228.45,-385.21 223.7,-383.81"/>
<polygon fill="black" stroke="black" points="223.98,-380.33 213.74,-383.04 223.44,-387.3 223.98,-380.33"/>
<text text-anchor="middle" x="280.37" y="-386.81" font-family="Times New Roman,serif" font-size="14.00">XXB / 0XB, LSS</text>
</g>
<!-- q20 -->
<g id="node18" class="node">
<title>q20</title>
<ellipse fill="none" stroke="black" cx="63" cy="-275.5" rx="24.62" ry="24.62"/>
<text text-anchor="middle" x="63" y="-270.08" font-family="Times New Roman,serif" font-size="14.00">q20</text>
</g>
<!-- q21&#45;&gt;q20 -->
<g id="edge51" class="edge">
<title>q21&#45;&gt;q20</title>
<path fill="none" stroke="black" d="M168.95,-377.57C163.03,-373.96 156.42,-370.33 150,-367.62 120.6,-355.23 102.85,-372.39 80.5,-349.62 70.74,-339.68 66.08,-325.32 63.96,-311.95"/>
<polygon fill="black" stroke="black" points="67.44,-311.65 62.85,-302.1 60.49,-312.43 67.44,-311.65"/>
<text text-anchor="middle" x="129.75" y="-328.45" font-family="Times New Roman,serif" font-size="14.00">1XB / 1XB, RRS</text>
</g>
<!-- q3&#45;&gt;q22 -->
<g id="edge13" class="edge">
<title>q3&#45;&gt;q22</title>
<path fill="none" stroke="black" d="M317.13,-834.82C294.24,-830.43 256.42,-820.64 230,-800.81 209.97,-785.77 193.8,-762.5 182.86,-743.54"/>
<polygon fill="black" stroke="black" points="185.96,-741.92 178.06,-734.86 179.83,-745.3 185.96,-741.92"/>
<text text-anchor="middle" x="276.5" y="-771.76" font-family="Times New Roman,serif" font-size="14.00">1BB / 1BB, LSS</text>
</g>
<!-- q3&#45;&gt;q3 -->
<g id="edge10" class="edge">
<title>q3&#45;&gt;q3</title>
<path fill="none" stroke="black" d="M355.83,-847.2C365.93,-848.61 375.13,-845.85 375.13,-838.93 375.13,-834.83 371.88,-832.19 367.14,-831.01"/>
<polygon fill="black" stroke="black" points="367.45,-827.52 357.34,-830.71 367.23,-834.52 367.45,-827.52"/>
<text text-anchor="middle" x="426.13" y="-841.38" font-family="Times New Roman,serif" font-size="14.00">YBB / YBB, RSS</text>
<text text-anchor="middle" x="426.13" y="-825.63" font-family="Times New Roman,serif" font-size="14.00">YXB / YXB, RSS</text>
</g>
<!-- q3&#45;&gt;q20 -->
<g id="edge12" class="edge">
<title>q3&#45;&gt;q20</title>
<path fill="none" stroke="black" d="M316.93,-834.93C244.38,-823.52 0,-780.02 0,-711.94 0,-711.94 0,-711.94 0,-391.24 0,-357.63 21.02,-324.57 38.78,-302.63"/>
<polygon fill="black" stroke="black" points="41.36,-305 45.14,-295.1 36.01,-300.48 41.36,-305"/>
<text text-anchor="middle" x="48" y="-538.29" font-family="Times New Roman,serif" font-size="14.00">1XB / 1XB, RSS</text>
</g>
<!-- q4 -->
<g id="node21" class="node">
<title>q4</title>
<ellipse fill="none" stroke="black" cx="421" cy="-710.94" rx="20.13" ry="20.13"/>
<text text-anchor="middle" x="421" y="-705.52" font-family="Times New Roman,serif" font-size="14.00">q4</text>
</g>
<!-- q3&#45;&gt;q4 -->
<g id="edge11" class="edge">
<title>q3&#45;&gt;q4</title>
<path fill="none" stroke="black" d="M347.81,-821.72C362.05,-800.36 387.24,-762.57 404.04,-737.39"/>
<polygon fill="black" stroke="black" points="406.76,-739.61 409.39,-729.35 400.93,-735.73 406.76,-739.61"/>
<text text-anchor="middle" x="440.75" y="-787.51" font-family="Times New Roman,serif" font-size="14.00">0BB / YBB, LSS</text>
<text text-anchor="middle" x="440.75" y="-771.76" font-family="Times New Roman,serif" font-size="14.00">0XB / YXB, LSS</text>
<text text-anchor="middle" x="440.75" y="-756.01" font-family="Times New Roman,serif" font-size="14.00">00B / Y0B, LSS</text>
</g>
<!-- q20&#45;&gt;q24 -->
<g id="edge48" class="edge">
<title>q20&#45;&gt;q24</title>
<path fill="none" stroke="black" d="M54.99,-299.05C46.14,-328 35.47,-379.02 54.5,-416.85 68.76,-445.21 99.3,-465.58 123.17,-477.93"/>
<polygon fill="black" stroke="black" points="121.38,-480.95 131.9,-482.23 124.47,-474.67 121.38,-480.95"/>
<text text-anchor="middle" x="105.25" y="-386.81" font-family="Times New Roman,serif" font-size="14.00">0XB / XXB, RRS</text>
</g>
<!-- q20&#45;&gt;q_accept -->
<g id="edge49" class="edge">
<title>q20&#45;&gt;q_accept</title>
<path fill="none" stroke="black" d="M68.9,-251.22C72.59,-240.02 78.25,-226.93 86.5,-217.14 100.3,-200.75 119.24,-187.14 137.26,-176.62"/>
<polygon fill="black" stroke="black" points="138.8,-179.77 145.82,-171.84 135.38,-173.66 138.8,-179.77"/>
<text text-anchor="middle" x="132.75" y="-219.59" font-family="Times New Roman,serif" font-size="14.00">01B / 01B, RRS</text>
</g>
<!-- q1&#45;&gt;q2 -->
<g id="edge7" class="edge">
<title>q1&#45;&gt;q2</title>
<path fill="none" stroke="black" d="M257.08,-1038.09C256.12,-1018.06 254.61,-986.48 253.48,-962.96"/>
<polygon fill="black" stroke="black" points="256.98,-962.83 253.01,-953.01 249.99,-963.16 256.98,-962.83"/>
<text text-anchor="middle" x="304.25" y="-989.25" font-family="Times New Roman,serif" font-size="14.00">1BB / 0BB, RSS</text>
</g>
<!-- q1&#45;&gt;q1 -->
<g id="edge6" class="edge">
<title>q1&#45;&gt;q1</title>
<path fill="none" stroke="black" d="M276.83,-1066.69C286.93,-1068.09 296.13,-1065.34 296.13,-1058.42 296.13,-1054.31 292.88,-1051.67 288.14,-1050.5"/>
<polygon fill="black" stroke="black" points="288.45,-1047 278.34,-1050.2 288.23,-1054 288.45,-1047"/>
<text text-anchor="middle" x="343.38" y="-1052.99" font-family="Times New Roman,serif" font-size="14.00">0BB / 0BB, RSS</text>
</g>
<!-- q0+&#45;&gt;q3 -->
<g id="edge5" class="edge">
<title>q0+&#45;&gt;q3</title>
<path fill="none" stroke="black" d="M420.96,-968.69C420.71,-943.43 416.87,-904.34 398,-877.06 390.22,-865.82 377.83,-857.37 366.24,-851.4"/>
<polygon fill="black" stroke="black" points="367.89,-848.31 357.35,-847.25 364.93,-854.65 367.89,-848.31"/>
<text text-anchor="middle" x="468.25" y="-925.51" font-family="Times New Roman,serif" font-size="14.00">1BB / 1BB, RSS</text>
</g>
<!-- q0+&#45;&gt;q0+ -->
<g id="edge4" class="edge">
<title>q0+&#45;&gt;q0+</title>
<path fill="none" stroke="black" d="M443.33,-1006.39C454.16,-1007.67 463.62,-1003.77 463.62,-994.68 463.62,-989 459.92,-985.34 454.51,-983.71"/>
<polygon fill="black" stroke="black" points="455.06,-980.24 444.84,-983.06 454.59,-987.22 455.06,-980.24"/>
<text text-anchor="middle" x="510.87" y="-989.25" font-family="Times New Roman,serif" font-size="14.00">0BB / 0BB, RSS</text>
</g>
<!-- q4&#45;&gt;q5 -->
<g id="edge15" class="edge">
<title>q4&#45;&gt;q5</title>
<path fill="none" stroke="black" d="M434.24,-695.87C452.62,-676.35 486.06,-640.82 507.9,-617.62"/>
<polygon fill="black" stroke="black" points="510.31,-620.17 514.61,-610.49 505.21,-615.37 510.31,-620.17"/>
<text text-anchor="middle" x="534.25" y="-655.02" font-family="Times New Roman,serif" font-size="14.00">1BB / 1BB, LSS</text>
<text text-anchor="middle" x="534.25" y="-639.27" font-family="Times New Roman,serif" font-size="14.00">1XB / 1XB, LSS</text>
</g>
<!-- q4&#45;&gt;q4 -->
<g id="edge14" class="edge">
<title>q4&#45;&gt;q4</title>
<path fill="none" stroke="black" d="M438.65,-721.2C449.2,-723.48 459.13,-720.06 459.13,-710.94 459.13,-705.24 455.25,-701.77 449.76,-700.52"/>
<polygon fill="black" stroke="black" points="450.11,-697.01 440.16,-700.66 450.21,-704.01 450.11,-697.01"/>
<text text-anchor="middle" x="509.38" y="-713.39" font-family="Times New Roman,serif" font-size="14.00">YXB / YXB, LSS</text>
<text text-anchor="middle" x="509.38" y="-697.64" font-family="Times New Roman,serif" font-size="14.00">YBB / YBB, LSS</text>
</g>
<!-- q23&#45;&gt;q24 -->
<g id="edge55" class="edge">
<title>q23&#45;&gt;q24</title>
<path fill="none" stroke="black" d="M162.06,-569.24C161.09,-557.21 159.89,-542.4 158.82,-529.12"/>
<polygon fill="black" stroke="black" points="162.33,-529.16 158.04,-519.47 155.36,-529.72 162.33,-529.16"/>
<text text-anchor="middle" x="207.5" y="-538.29" font-family="Times New Roman,serif" font-size="14.00">0BB / BB0, SSS</text>
</g>
<!-- q11&#45;&gt;q16 -->
<g id="edge33" class="edge">
<title>q11&#45;&gt;q16</title>
<path fill="none" stroke="black" d="M908.69,-479.12C920.36,-471.37 934.98,-461.04 947,-450.6 957.7,-441.31 968.59,-430.14 977.76,-420.13"/>
<polygon fill="black" stroke="black" points="980.23,-422.62 984.31,-412.84 975.03,-417.94 980.23,-422.62"/>
<text text-anchor="middle" x="1007" y="-437.3" font-family="Times New Roman,serif" font-size="14.00">11B / 11B, SRS</text>
</g>
<!-- q11&#45;&gt;q12 -->
<g id="edge32" class="edge">
<title>q11&#45;&gt;q12</title>
<path fill="none" stroke="black" d="M872.15,-474.04C866.21,-466.92 859.56,-458.56 854,-450.6 848.18,-442.28 842.36,-432.93 837.22,-424.23"/>
<polygon fill="black" stroke="black" points="840.34,-422.63 832.3,-415.73 834.28,-426.14 840.34,-422.63"/>
<text text-anchor="middle" x="900.5" y="-437.3" font-family="Times New Roman,serif" font-size="14.00">1XB / 10B, SRS</text>
</g>
<!-- q11&#45;&gt;q11 -->
<g id="edge31" class="edge">
<title>q11&#45;&gt;q11</title>
<path fill="none" stroke="black" d="M911.23,-502.54C921.63,-503.43 930.62,-500.32 930.62,-493.22 930.62,-489.01 927.45,-486.2 922.7,-484.8"/>
<polygon fill="black" stroke="black" points="922.98,-481.31 912.74,-484.02 922.44,-488.29 922.98,-481.31"/>
<text text-anchor="middle" x="978.62" y="-487.8" font-family="Times New Roman,serif" font-size="14.00">0XB / 0XB, RSS</text>
</g>
<!-- q17&#45;&gt;q18 -->
<g id="edge43" class="edge">
<title>q17&#45;&gt;q18</title>
<path fill="none" stroke="black" d="M1000.8,-250.41C1000.66,-232.23 1000.45,-207 1000.29,-186.52"/>
<polygon fill="black" stroke="black" points="1003.79,-186.58 1000.21,-176.61 996.79,-186.64 1003.79,-186.58"/>
<text text-anchor="middle" x="1045.75" y="-219.59" font-family="Times New Roman,serif" font-size="14.00">1XB / 11B, SLS</text>
</g>
<!-- q19&#45;&gt;q3 -->
<g id="edge47" class="edge">
<title>q19&#45;&gt;q3</title>
<path fill="none" stroke="black" d="M1039.61,-32.93C1081.62,-47.57 1165,-84.73 1165,-149.06 1165,-711.94 1165,-711.94 1165,-711.94 1165,-794.05 520.36,-829.35 368.68,-836.52"/>
<polygon fill="black" stroke="black" points="368.81,-833.01 358.98,-836.97 369.13,-840 368.81,-833.01"/>
<text text-anchor="middle" x="1213" y="-437.3" font-family="Times New Roman,serif" font-size="14.00">1BB / 1BB, RRS</text>
</g>
<!-- q19&#45;&gt;q19 -->
<g id="edge46" class="edge">
<title>q19&#45;&gt;q19</title>
<path fill="none" stroke="black" d="M1039.23,-33.94C1049.63,-34.82 1058.62,-31.72 1058.62,-24.62 1058.62,-20.4 1055.45,-17.59 1050.7,-16.19"/>
<polygon fill="black" stroke="black" points="1050.98,-12.71 1040.74,-15.42 1050.44,-19.68 1050.98,-12.71"/>
<text text-anchor="middle" x="1104.37" y="-19.19" font-family="Times New Roman,serif" font-size="14.00">10B / 1XB, SLS</text>
</g>
<!-- q10&#45;&gt;q5 -->
<g id="edge30" class="edge">
<title>q10&#45;&gt;q5</title>
<path fill="none" stroke="black" d="M510.83,-299.28C501.25,-332.5 486.24,-396.21 493,-450.6 497.95,-490.47 510.42,-535.19 519.29,-563.75"/>
<polygon fill="black" stroke="black" points="515.9,-564.66 522.26,-573.13 522.57,-562.54 515.9,-564.66"/>
<text text-anchor="middle" x="538" y="-437.3" font-family="Times New Roman,serif" font-size="14.00">00B / 00B, SRS</text>
</g>
<!-- q10&#45;&gt;q10 -->
<g id="edge29" class="edge">
<title>q10&#45;&gt;q10</title>
<path fill="none" stroke="black" d="M541.23,-284.82C551.63,-285.71 560.62,-282.6 560.62,-275.5 560.62,-271.29 557.45,-268.48 552.7,-267.08"/>
<polygon fill="black" stroke="black" points="552.98,-263.59 542.74,-266.3 552.44,-270.57 552.98,-263.59"/>
<text text-anchor="middle" x="607.87" y="-270.08" font-family="Times New Roman,serif" font-size="14.00">0XB / 0XB, SLS</text>
</g>
<!-- q7&#45;&gt;q8 -->
<g id="edge24" class="edge">
<title>q7&#45;&gt;q8</title>
<path fill="none" stroke="black" d="M560.73,-481.28C570.38,-473.9 581.65,-463.23 587,-450.6 590.7,-441.88 590.59,-431.81 588.98,-422.56"/>
<polygon fill="black" stroke="black" points="592.4,-421.83 586.66,-412.92 585.59,-423.47 592.4,-421.83"/>
<text text-anchor="middle" x="635.38" y="-437.3" font-family="Times New Roman,serif" font-size="14.00">0BB / 00B, SLS</text>
</g>
<!-- q7&#45;&gt;q7 -->
<g id="edge23" class="edge">
<title>q7&#45;&gt;q7</title>
<path fill="none" stroke="black" d="M562.44,-502.24C572.69,-503.92 582.13,-500.91 582.13,-493.22 582.13,-488.53 578.62,-485.59 573.56,-484.38"/>
<polygon fill="black" stroke="black" points="574,-480.89 563.95,-484.23 573.9,-487.89 574,-480.89"/>
<text text-anchor="middle" x="630.13" y="-503.55" font-family="Times New Roman,serif" font-size="14.00">0XB / 0XB, SRS</text>
<text text-anchor="middle" x="630.13" y="-487.8" font-family="Times New Roman,serif" font-size="14.00">01B / 01B, SRS</text>
<text text-anchor="middle" x="630.13" y="-472.05" font-family="Times New Roman,serif" font-size="14.00">00B / 00B, SRS</text>
</g>
<!-- start -->
<g id="node28" class="node">
<title>start</title>
<ellipse fill="black" stroke="black" cx="339" cy="-1224.1" rx="1.8" ry="1.8"/>
</g>
<!-- start&#45;&gt;q0 -->
<g id="edge1" class="edge">
<title>start&#45;&gt;q0</title>
<path fill="none" stroke="black" d="M339,-1221.85C339,-1216.99 339,-1198.71 339,-1181.99"/>
<polygon fill="black" stroke="black" points="342.5,-1182.36 339,-1172.36 335.5,-1182.36 342.5,-1182.36"/>
<text text-anchor="middle" x="351" y="-1191" font-family="Times New Roman,serif" font-size="14.00">start</text>
</g>
</g>
</svg>
